<mxfile host="Electron" modified="2023-06-17T19:35:56.666Z" agent="Mozilla/5.0 (Windows NT 10.0; Win64; x64) AppleWebKit/537.36 (KHTML, like Gecko) draw.io/21.4.0 Chrome/112.0.5615.204 Electron/24.5.1 Safari/537.36" etag="D1dHU4IKUaU3a5BGt44G" version="21.4.0" type="device">
  <diagram name="Page-1" id="oVk6OJmeQYWeN-jiUmRK">
    <mxGraphModel dx="2555" dy="1003" grid="1" gridSize="10" guides="1" tooltips="1" connect="1" arrows="1" fold="1" page="1" pageScale="1" pageWidth="827" pageHeight="1169" math="0" shadow="0">
      <root>
        <mxCell id="0" />
        <mxCell id="1" parent="0" />
        <mxCell id="lHOqpLfYiDpw_6H5dYu--205" value="" style="group" parent="1" vertex="1" connectable="0">
          <mxGeometry x="-250" y="210" width="260" height="59" as="geometry" />
        </mxCell>
        <mxCell id="oLFmq5AmfZfRvkI5jMGv-1" value="" style="rounded=0;whiteSpace=wrap;html=1;dashed=1;fillColor=none;" vertex="1" parent="lHOqpLfYiDpw_6H5dYu--205">
          <mxGeometry x="70" y="-1" width="120" height="60" as="geometry" />
        </mxCell>
        <mxCell id="lHOqpLfYiDpw_6H5dYu--206" value="" style="endArrow=oval;html=1;rounded=0;fillColor=#dae8fc;strokeColor=#6c8ebf;strokeWidth=3;startArrow=oval;startFill=1;jumpStyle=none;endFill=1;endSize=1;startSize=1;" parent="lHOqpLfYiDpw_6H5dYu--205" edge="1">
          <mxGeometry width="50" height="50" relative="1" as="geometry">
            <mxPoint x="110" y="50" as="sourcePoint" />
            <mxPoint x="150" y="50" as="targetPoint" />
          </mxGeometry>
        </mxCell>
        <mxCell id="lHOqpLfYiDpw_6H5dYu--207" value="" style="endArrow=oval;html=1;rounded=0;fillColor=#dae8fc;strokeColor=#6c8ebf;strokeWidth=3;startArrow=oval;startFill=1;jumpStyle=none;endFill=1;endSize=1;startSize=1;" parent="lHOqpLfYiDpw_6H5dYu--205" edge="1">
          <mxGeometry width="50" height="50" relative="1" as="geometry">
            <mxPoint x="150" y="50" as="sourcePoint" />
            <mxPoint x="170" y="32" as="targetPoint" />
          </mxGeometry>
        </mxCell>
        <mxCell id="lHOqpLfYiDpw_6H5dYu--208" value="" style="endArrow=oval;html=1;rounded=0;fillColor=#dae8fc;strokeColor=#6c8ebf;strokeWidth=3;startArrow=oval;startFill=1;jumpStyle=none;endFill=1;endSize=1;startSize=1;" parent="lHOqpLfYiDpw_6H5dYu--205" edge="1">
          <mxGeometry width="50" height="50" relative="1" as="geometry">
            <mxPoint x="150" y="10" as="sourcePoint" />
            <mxPoint x="170" y="28" as="targetPoint" />
          </mxGeometry>
        </mxCell>
        <mxCell id="lHOqpLfYiDpw_6H5dYu--209" value="" style="endArrow=oval;html=1;rounded=0;fillColor=#dae8fc;strokeColor=#6c8ebf;strokeWidth=3;startArrow=oval;startFill=1;jumpStyle=none;endSize=1;startSize=1;endFill=1;jumpSize=3;" parent="lHOqpLfYiDpw_6H5dYu--205" edge="1">
          <mxGeometry width="50" height="50" relative="1" as="geometry">
            <mxPoint x="60" y="32" as="sourcePoint" />
            <mxPoint x="90" y="32" as="targetPoint" />
          </mxGeometry>
        </mxCell>
        <mxCell id="lHOqpLfYiDpw_6H5dYu--210" value="" style="endArrow=oval;html=1;rounded=0;fillColor=#dae8fc;strokeColor=#6c8ebf;strokeWidth=3;startArrow=oval;startFill=1;jumpStyle=none;endSize=1;startSize=1;endFill=1;jumpSize=3;" parent="lHOqpLfYiDpw_6H5dYu--205" edge="1">
          <mxGeometry width="50" height="50" relative="1" as="geometry">
            <mxPoint x="60" y="28" as="sourcePoint" />
            <mxPoint x="90" y="28" as="targetPoint" />
          </mxGeometry>
        </mxCell>
        <mxCell id="lHOqpLfYiDpw_6H5dYu--211" value="" style="endArrow=oval;html=1;rounded=0;fillColor=#dae8fc;strokeColor=#6c8ebf;strokeWidth=3;startArrow=oval;startFill=1;jumpStyle=none;endSize=1;startSize=1;endFill=1;jumpSize=3;" parent="lHOqpLfYiDpw_6H5dYu--205" edge="1">
          <mxGeometry width="50" height="50" relative="1" as="geometry">
            <mxPoint x="40" y="50" as="sourcePoint" />
            <mxPoint x="60" y="32" as="targetPoint" />
          </mxGeometry>
        </mxCell>
        <mxCell id="lHOqpLfYiDpw_6H5dYu--212" value="" style="endArrow=oval;html=1;rounded=0;fillColor=#dae8fc;strokeColor=#6C8EBF;strokeWidth=3;startArrow=oval;startFill=1;jumpStyle=none;endSize=1;startSize=1;endFill=1;jumpSize=3;" parent="lHOqpLfYiDpw_6H5dYu--205" edge="1">
          <mxGeometry width="50" height="50" relative="1" as="geometry">
            <mxPoint x="40" y="10" as="sourcePoint" />
            <mxPoint x="60" y="28" as="targetPoint" />
          </mxGeometry>
        </mxCell>
        <mxCell id="lHOqpLfYiDpw_6H5dYu--213" value="" style="endArrow=oval;html=1;rounded=0;fillColor=#dae8fc;strokeColor=#6c8ebf;strokeWidth=3;startArrow=oval;startFill=1;jumpStyle=none;endSize=1;startSize=1;endFill=1;jumpSize=3;" parent="lHOqpLfYiDpw_6H5dYu--205" edge="1">
          <mxGeometry width="50" height="50" relative="1" as="geometry">
            <mxPoint x="90" y="32" as="sourcePoint" />
            <mxPoint x="110" y="50" as="targetPoint" />
          </mxGeometry>
        </mxCell>
        <mxCell id="lHOqpLfYiDpw_6H5dYu--214" value="" style="endArrow=oval;html=1;rounded=0;fillColor=#dae8fc;strokeColor=#6c8ebf;strokeWidth=3;startArrow=oval;startFill=1;jumpStyle=none;endSize=1;startSize=1;endFill=1;jumpSize=3;" parent="lHOqpLfYiDpw_6H5dYu--205" edge="1">
          <mxGeometry width="50" height="50" relative="1" as="geometry">
            <mxPoint x="90" y="28" as="sourcePoint" />
            <mxPoint x="110" y="10" as="targetPoint" />
          </mxGeometry>
        </mxCell>
        <mxCell id="lHOqpLfYiDpw_6H5dYu--215" value="" style="endArrow=oval;html=1;rounded=0;fillColor=#dae8fc;strokeColor=#6c8ebf;strokeWidth=3;startArrow=oval;startFill=1;jumpStyle=none;endFill=1;endSize=1;startSize=1;" parent="lHOqpLfYiDpw_6H5dYu--205" edge="1">
          <mxGeometry width="50" height="50" relative="1" as="geometry">
            <mxPoint x="170" y="32" as="sourcePoint" />
            <mxPoint x="200" y="32" as="targetPoint" />
          </mxGeometry>
        </mxCell>
        <mxCell id="lHOqpLfYiDpw_6H5dYu--216" value="" style="endArrow=oval;html=1;rounded=0;fillColor=#dae8fc;strokeColor=#6c8ebf;strokeWidth=3;startArrow=oval;startFill=1;jumpStyle=none;endFill=1;endSize=1;startSize=1;" parent="lHOqpLfYiDpw_6H5dYu--205" edge="1">
          <mxGeometry width="50" height="50" relative="1" as="geometry">
            <mxPoint x="170" y="28" as="sourcePoint" />
            <mxPoint x="200" y="28" as="targetPoint" />
          </mxGeometry>
        </mxCell>
        <mxCell id="lHOqpLfYiDpw_6H5dYu--217" value="" style="endArrow=oval;html=1;rounded=0;fillColor=#dae8fc;strokeColor=#6c8ebf;strokeWidth=3;startArrow=oval;startFill=1;jumpStyle=none;endFill=1;endSize=1;startSize=1;" parent="lHOqpLfYiDpw_6H5dYu--205" edge="1">
          <mxGeometry width="50" height="50" relative="1" as="geometry">
            <mxPoint x="200" y="32" as="sourcePoint" />
            <mxPoint x="220" y="50" as="targetPoint" />
          </mxGeometry>
        </mxCell>
        <mxCell id="lHOqpLfYiDpw_6H5dYu--218" value="" style="endArrow=oval;html=1;rounded=0;fillColor=#dae8fc;strokeColor=#6c8ebf;strokeWidth=3;startArrow=oval;startFill=1;jumpStyle=none;endFill=1;endSize=1;startSize=1;" parent="lHOqpLfYiDpw_6H5dYu--205" edge="1">
          <mxGeometry width="50" height="50" relative="1" as="geometry">
            <mxPoint x="200" y="28" as="sourcePoint" />
            <mxPoint x="220" y="10" as="targetPoint" />
          </mxGeometry>
        </mxCell>
        <mxCell id="lHOqpLfYiDpw_6H5dYu--219" value="" style="endArrow=oval;html=1;rounded=0;fillColor=#dae8fc;strokeColor=#6c8ebf;strokeWidth=3;startArrow=oval;startFill=1;jumpStyle=none;endFill=1;endSize=1;startSize=1;" parent="lHOqpLfYiDpw_6H5dYu--205" edge="1">
          <mxGeometry width="50" height="50" relative="1" as="geometry">
            <mxPoint x="110" y="10" as="sourcePoint" />
            <mxPoint x="150" y="10" as="targetPoint" />
          </mxGeometry>
        </mxCell>
        <mxCell id="lHOqpLfYiDpw_6H5dYu--220" value="Δφ" style="rounded=0;whiteSpace=wrap;html=1;fillColor=#82B366;strokeColor=none;fontFamily=UGent Panno Text;fontSize=16;fontColor=#FFFFFF;" parent="lHOqpLfYiDpw_6H5dYu--205" vertex="1">
          <mxGeometry x="115" width="30" height="17" as="geometry" />
        </mxCell>
        <mxCell id="lHOqpLfYiDpw_6H5dYu--221" value="" style="endArrow=oval;html=1;rounded=0;fillColor=#dae8fc;strokeColor=#6c8ebf;strokeWidth=3;startArrow=oval;startFill=1;jumpStyle=none;endFill=1;endSize=1;startSize=1;" parent="lHOqpLfYiDpw_6H5dYu--205" edge="1">
          <mxGeometry width="50" height="50" relative="1" as="geometry">
            <mxPoint x="220" y="9.389999999999986" as="sourcePoint" />
            <mxPoint x="260" y="9.389999999999986" as="targetPoint" />
          </mxGeometry>
        </mxCell>
        <mxCell id="lHOqpLfYiDpw_6H5dYu--222" value="" style="endArrow=oval;html=1;rounded=0;fillColor=#dae8fc;strokeColor=#6c8ebf;strokeWidth=3;startArrow=oval;startFill=1;jumpStyle=none;endFill=1;endSize=1;startSize=1;" parent="lHOqpLfYiDpw_6H5dYu--205" edge="1">
          <mxGeometry width="50" height="50" relative="1" as="geometry">
            <mxPoint x="220" y="50" as="sourcePoint" />
            <mxPoint x="260" y="50" as="targetPoint" />
          </mxGeometry>
        </mxCell>
        <mxCell id="lHOqpLfYiDpw_6H5dYu--223" value="" style="endArrow=oval;html=1;rounded=0;fillColor=#dae8fc;strokeColor=#6c8ebf;strokeWidth=3;startArrow=oval;startFill=1;jumpStyle=none;endFill=1;endSize=1;startSize=1;" parent="lHOqpLfYiDpw_6H5dYu--205" edge="1">
          <mxGeometry width="50" height="50" relative="1" as="geometry">
            <mxPoint y="10" as="sourcePoint" />
            <mxPoint x="40" y="10" as="targetPoint" />
          </mxGeometry>
        </mxCell>
        <mxCell id="lHOqpLfYiDpw_6H5dYu--224" value="" style="endArrow=oval;html=1;rounded=0;fillColor=#dae8fc;strokeColor=#6c8ebf;strokeWidth=3;startArrow=oval;startFill=1;jumpStyle=none;endFill=1;endSize=1;startSize=1;" parent="lHOqpLfYiDpw_6H5dYu--205" edge="1">
          <mxGeometry width="50" height="50" relative="1" as="geometry">
            <mxPoint y="50.610000000000014" as="sourcePoint" />
            <mxPoint x="40" y="50.610000000000014" as="targetPoint" />
          </mxGeometry>
        </mxCell>
        <mxCell id="lHOqpLfYiDpw_6H5dYu--225" value="Δφ" style="rounded=0;whiteSpace=wrap;html=1;fillColor=#82B366;strokeColor=none;fontFamily=UGent Panno Text;fontSize=16;fontColor=#FFFFFF;" parent="lHOqpLfYiDpw_6H5dYu--205" vertex="1">
          <mxGeometry x="5" y="42" width="30" height="17" as="geometry" />
        </mxCell>
        <mxCell id="oLFmq5AmfZfRvkI5jMGv-2" style="rounded=0;orthogonalLoop=1;jettySize=auto;html=1;exitX=0.5;exitY=1;exitDx=0;exitDy=0;entryX=1;entryY=0;entryDx=0;entryDy=0;endArrow=oval;endFill=1;" edge="1" parent="1" source="lHOqpLfYiDpw_6H5dYu--256" target="lHOqpLfYiDpw_6H5dYu--220">
          <mxGeometry relative="1" as="geometry" />
        </mxCell>
        <mxCell id="lHOqpLfYiDpw_6H5dYu--256" value="Phase shifter" style="text;html=1;strokeColor=none;fillColor=none;align=center;verticalAlign=middle;whiteSpace=wrap;rounded=0;fontFamily=UGent Panno Text;fontSize=28;" parent="1" vertex="1">
          <mxGeometry x="-150" y="160" width="130" height="30" as="geometry" />
        </mxCell>
        <mxCell id="oLFmq5AmfZfRvkI5jMGv-4" style="rounded=0;orthogonalLoop=1;jettySize=auto;html=1;entryX=0.5;entryY=1;entryDx=0;entryDy=0;endArrow=oval;endFill=1;" edge="1" parent="1" source="oLFmq5AmfZfRvkI5jMGv-3" target="oLFmq5AmfZfRvkI5jMGv-1">
          <mxGeometry relative="1" as="geometry" />
        </mxCell>
        <mxCell id="oLFmq5AmfZfRvkI5jMGv-3" value="MZI" style="text;html=1;strokeColor=none;fillColor=none;align=center;verticalAlign=middle;whiteSpace=wrap;rounded=0;fontFamily=UGent Panno Text;fontSize=28;" vertex="1" parent="1">
          <mxGeometry x="-185" y="290" width="130" height="30" as="geometry" />
        </mxCell>
        <mxCell id="oLFmq5AmfZfRvkI5jMGv-7" style="rounded=0;orthogonalLoop=1;jettySize=auto;html=1;exitX=0.5;exitY=0;exitDx=0;exitDy=0;endArrow=oval;endFill=1;" edge="1" parent="1" source="oLFmq5AmfZfRvkI5jMGv-5">
          <mxGeometry relative="1" as="geometry">
            <mxPoint x="-180" y="240" as="targetPoint" />
          </mxGeometry>
        </mxCell>
        <mxCell id="oLFmq5AmfZfRvkI5jMGv-5" value="Coupler" style="text;html=1;strokeColor=none;fillColor=none;align=center;verticalAlign=middle;whiteSpace=wrap;rounded=0;fontFamily=UGent Panno Text;fontSize=28;" vertex="1" parent="1">
          <mxGeometry x="-290" y="290" width="130" height="30" as="geometry" />
        </mxCell>
      </root>
    </mxGraphModel>
  </diagram>
</mxfile>
